# xmcd CD database file
#
# Track frame offsets:
#	150
#	22658
#	42530
#	64988
#
# Disc length: 1129 seconds
#
# Revision: 4
# Processed by: cddbd v1.5.2PL0 Copyright (c) Steve Scherf et al.
# Submitted via: CDex 1.70beta2
#
DISCID=2d046704
DTITLE=風鳴翼 - 戦姫絶唱シンフォギア キャラクターソング3 風鳴翼
DYEAR=2012
DGENRE=Anime
TTITLE0=絶刀・天羽々斬
TTITLE1=FLIGHT FEATHERS
TTITLE2=絶刀・天羽々斬　off vocal
TTITLE3=FLIGHT FEATHERS　off vocal
EXTD=YEAR: 2012
EXTT0=
EXTT1=
EXTT2=
EXTT3=
PLAYORDER=
